<svg xmlns="http://www.w3.org/2000/svg" viewBox="0 0 72 63"><polygon points="17.1 6 17.1 3 3.1 3 3.1 60 17.1 60 17.1 57 5.1 57 5.1 6 "/><path d="M23.4 28l2.5 6 2.5-6H30v7h-1v-6l-2.6 6h-0.7L23 29l0 0v6h-1v-7C22 28 23.4 28 23.4 28z"/><path d="M36 28v1h-4v2h4v1h-4v2h4v1h-5v-7C31 28 36 28 36 28z"/><path d="M38.5 28l3.5 5.5V34v-6h1v7h-1l-4-6 0 0v6h-1v-7C37 28 38.5 28 38.5 28z"/><path d="M45 28v4.1c0 0.4 0 0.8 0.1 1.1 0.1 0.3 0.2 0.5 0.4 0.7 0.2 0.2 0.4 0.3 0.6 0.4 0.2 0.1 0.5 0.1 0.8 0.1s0.6 0 0.8-0.1c0.2-0.1 0.5-0.2 0.6-0.4 0.2-0.2 0.3-0.4 0.4-0.7 0.1-0.3 0.1-0.6 0.1-1.1V28h1v4.3c0 0.4-0.1 0.7-0.2 1 -0.1 0.3-0.3 0.6-0.5 0.9s-0.6 0.4-0.9 0.6C48 34.9 47.6 35 47 35c-0.5 0-1-0.1-1.4-0.2 -0.4-0.1-0.7-0.3-0.9-0.6 -0.2-0.2-0.4-0.5-0.5-0.9s-0.2-0.7-0.2-1V28C44 28 45 28 45 28z"/><polygon points="55.1 57 55.1 60 69.1 60 69.1 3 55.1 3 55.1 6 67.1 6 67.1 57 "/></svg>
